<?xml version="1.0" encoding="UTF-8"?><svg id="a" xmlns="http://www.w3.org/2000/svg" viewBox="0 0 94.25 65.52"><defs><style>.b{fill:#b2292e;stroke:#b2292e;stroke-miterlimit:10;}</style></defs><path class="b" d="M19.73,43.82l-3.18,1.11-3.62.65s-1.94.09-3.27-.46c-1.32-.55-2.47-.83-4.15-2.4-1.68-1.57-2.91-4.15-3.44-5.53-.53-1.38-1.24-4.24-1.41-5.25-.18-1.01-.27-3.13,0-6.09.27-2.95.27-2.86.53-3.78.27-.92.13-.65.49-1.48.35-.83.4-1.06.75-1.61.35-.55.26-.46.79-.65.53-.18.53-.32.97,0,.44.32.66.65.84,1.01.18.37-.35.32-.04,1.01.31.69,1.06,1.75,1.15,2.21.09.46-.13.51-.18.74-.04.23.18,2.3.09,3.04-.09.74.09,1.29,0,1.57-.09.28-.27.97-.13,1.2.13.23,0,.89.04,1.43.04.55.22.82.22,1.1s.04,1.34,0,1.66c-.04.32.35.74.4,1.2.05.46.05.78.26,1.43.22.65.4,1.11.57,1.48.18.37.84,1.15,1.68,1.85.84.69.79,1.06,1.24,1.15.44.09,1.46.55,2.56.42,1.1-.14,2.87,0,3.93-.37,1.06-.37,3.66-.69,3.93-1.2.26-.51.35-.28.35-.28,0,0-.18-.69-.13-.83.04-.14-.22-2.9-.13-3.73.09-.83-.09-4.79,0-5.58.09-.78-.09-2.49-.09-2.49,0,0,.04-1.75,0-2.3-.04-.55.09-1.89.09-2.17s-.13-.65-.04-.83c.09-.18.18-.46.13-.6-.04-.14-.26-.14-.09-.46.18-.32.31-.37.31-.69s-.09-.32.35-.42c.44-.09.09-.28.31-.51.22-.23.31-.6.84-.55.53.05.66.14.97.51.31.37.93,3.27,1.32,3.27s-.09.83,0,.55c.09-.28-.09.18-.13.55-.04.37.07,2.4.09,3.23.02.83-.11,2.4,0,3.46.11,1.06,0,1.34,0,1.71s0,1.34.23,2.4c.22,1.06,0,1.8,0,1.8l.3.78v7.15s-.02.21-.14.51c-.09.23-.12.36-.12.55s.25.37.38.6c.07.12.05.45-.09.57-.14.11-.16.32-.02.44.14.12-.01.3-.3.51-.28.21-.18.2-.22.35-.07.28-.29.27-.49.21-.2-.05-.03-.34-.15-.2-.12.14-.31-.05-.43-.13-.11-.08-.21-.1-.41-.42-.17-.28-.31-.46-.53-.92-.22-.46-.85-2.09-1.24-2.58l-1.94,1.11Z"/><path class="b" d="M32.96.67c-.54.27-1.03,1.07-1.21,1.66-.18.58.31,2.06.45,2.59.14.54.05,1.88.18,2.95.13,1.07.36,2.01,0,2.55-.36.54-.85.27-1.03.72s-.4.4-.63.58c-.22.18-.36,0,0,.27.36.27,1.57.31,1.75.63.18.31.13,2.32.18,3.13.04.8.13,4.52.13,5.14s.27,1.25.09,1.83c-.18.58-.4.63-.63.98-.22.36-1.57.54-1.52,1.16.04.63,2.01.98,2.32,1.39.31.4.09,4.87.04,5.63-.04.76,0,5.55,0,6.04s.12.93-.02,1.13c-.13.2-.86-.07-1.19,0-.33.07-.46.13-.4.4.07.27,1.39,1.92,1.52,2.52.13.6,0,1.59,0,2.85,0,1.26.07,2.65,0,4.51-.07,1.86.4,5.9.46,6.97.07,1.06.93,4.84,1.33,5.84.4,1,1,1.99,1,1.99l.73.8s.19-.08.5,0c.31.08.45,0,.49-.31.04-.31.13-4.25.09-5.46-.05-1.21-.36-3-.27-3.89.09-.89-.22-2.64-.09-3.98.13-1.34.31-5.41.27-5.63-.04-.22,0-.49.27-.54.27-.04,1.97.85,2.5.94.54.09.72-.09,1.3.09.58.18,4.7.85,5.74.76,1.04-.09,2.89-.18,4.24-.22,1.34-.04,6.26-1.97,7.29-2.41,1.03-.45,3.8-2.91,4.43-3.62.63-.72,1.16-2.01,1.52-2.77.36-.76.63-2.37.49-3-.13-.63-.63-1.92-1.07-2.82-.45-.89-.63-1.97-.85-2.5-.22-.54-2.15-2.46-2.68-3.13-.54-.67-2.5-2.23-2.91-2.59-.4-.36-2.82-.98-2.82-1.39s.67-.94.98-1.25c.31-.31.85-.94.94-1.43.09-.49-.04-1.03-.26-1.43-.21-.4.08-.63,0-.98-.09-.36.04-.94,0-1.16-.05-.22-.36-.22-.54-.45-.18-.22-.22-.67-.58-1.43-.36-.76-2.5-2.19-3.31-2.68-.81-.49-2.15-1.3-3.22-1.34-1.07-.04-3.67-.81-4.87-.89-1.21-.09-2.37.09-2.64-.09-.27-.18.13-.67,0-1.16-.13-.49-.58-3.8-.81-4.16-.22-.36-.36-.36-.44-.89-.08-.54-.18-.76-.18-.76l-.31-.31s1.12-.22,0-.22-1.74,1.07-1.83,1.43c-.09.36.27,1.39.54,1.65.27.27.04.49.04.81s.27,3.17.27,3.17c0,0,.05.22-.22.54-.27.31-1.25.04-1.56-.27-.31-.31-.81-3.4-.98-4.16-.18-.76-.94-2.1-1.34-2.55-.4-.45-.63-1.57-.94-1.74-.31-.18-.18-.27-.72,0ZM38.02,40.47c-.27-.09-.38-.26-.36-.63,0,0,.18-2.91,0-4.52-.18-1.61,0-4.92,0-5.41s-.25-3.76-.08-3.98c.17-.22,1.44-.19,1.7-.06.27.13.12.78.16,1.13.04.36.45,5.63.63,8,.21,2.79.84,5.56.58,5.77-.18.14-2.37-.22-2.64-.31ZM50.73,25.03c1.46.15,3.73.33,4.65.89.92.57,2.3,1.61,2.8,1.97.51.36,1.79,1.71,2.15,2.39.36.68.83,1.28.95,1.66.12.39.06,1.1-.18,1.73-.24.63-1.37,2.44-2.59,3.34-1.22.89-2.92,2.24-4.86,2.98-1.94.75-.89.63-3.13,1.01-2.24.39-2.86.24-3.97.27-1.1.03-2.98-.21-3.4-.24-.42-.03-.37-.08-.48-.22-.11-.14,0-.55,0-.55,0,0,.18-3.04.18-3.94s-.03-4.26-.09-5.9c-.06-1.64-.06-4.35-.09-4.56-.03-.21.06-.33.18-.45.12-.12,2.42-.54,3.31-.33.9.21,3.1-.2,4.56-.06ZM43.99,11.97c.75.03,3.05.45,3.92.77.88.33,1.83.21,2.78.81.95.6,1.88.99,2.06,1.87.11.55.5.9.3,1.4-.21.49-1.46,1.53-2.27,1.95-.8.42-1.54.92-2.87,1.37-1.33.45-2.11.74-3.03.77-.92.03-1.97.33-2.18.33s-.18,0-.33-.33c0,0-.15-3.4-.15-4.29s-.24-3.16-.33-3.52c-.09-.36-.12-.75,0-.86.12-.12,1.34-.3,2.09-.27ZM38.84,11.94c.15.18-.03,1.01,0,1.58.03.57.34,2.98.45,3.99.1,1.01.27,3.67.15,3.85-.12.18-1.28.48-1.46.42-.18-.06-.19.02-.45,0-.26,0-.23-.48-.23-.75,0,0-.28-5.04-.19-5.63.09-.6,0-.95,0-1.28,0-.33-.02-.84.01-1.04.03-.21-.04-.45,0-.57.03-.12.99-.51,1.2-.57.21-.06.39-.18.54,0Z"/><path class="b" d="M68.97,30.71s2.27,1.02,3.12,1.76c.86.74,5.82,5.13,7.06,5.79,1.24.66,2.87,1.76,3.85,1.64.98-.12,1.88.33,2.35.29.47-.04,1.8-.49,2.7-1.44.9-.94,2.1-1.48,2.14-3.69.04-2.22-.43-2.18-.94-2.95-.51-.78-1.41-1.68-2.74-2.05-1.33-.37-1.93-.53-2.83-.7-.9-.16-1.5.04-2.57-.21-1.07-.25-4.15-1.11-4.58-1.31-.43-.2-1.11-.16-1.41-.37-.3-.21-1.2-.82-1.63-1.64-.43-.82-.98-2.42-.81-3.49.17-1.07-.04-.82.3-1.4.34-.57,1.03-1.81,1.37-2.22.34-.41,1.24-.78,1.8-1.07.56-.29,3.04-1.19,4.41-1.31,1.37-.12,3.51-.29,3.9-.29s1.84.74,2.27.9c.43.16,1.37,1.48,1.33,1.89-.04.41-.6,1.11-.98,1.15-.39.04-.56,0-.98-.29-.43-.29-.73-.25-1.2-.37-.47-.12-2.06-.25-2.87-.37-.81-.12-2.4-.21-3,.49-.6.7-.6.98-.34,1.44.26.45.56,1.52.9,2.05.34.53,3.72,2.3,4.54,2.5.81.21,5.18,2.38,6.51,3.9,1.33,1.52,2.74,3.49,3.04,5.79.3,2.3-.43,4.02-.6,4.27-.17.25-.6,1.07-.94,1.48-.34.41-.34.9-.6,1.23-.26.33-1.33,1.07-1.5,1.23-.17.16-.21.41-.64.57-.43.16-.47.16-.98.29-.51.12-1.37.66-2.4.9-1.03.25-2.48.7-3.17.86-.69.16-1.67-.04-2.31,0-.64.04-.68-.17-1.28-.29-.6-.12-1.84-.29-2.48-.66-.64-.37-3-1.85-3.77-2.54-.77-.7-1.8-1.76-2.48-2.83-.68-1.07-1.37-3.28-1.54-3.69-.17-.41-.43-1.27-.47-1.48-.04-.21-.13-.1-.04-.21.08-.1.04-.29.11-.33.06-.04.43.47.6.45.17-.02.49.1.47,0-.02-.1-.13-.66-.13-.76s.11-.33.02-.49c-.09-.16-.34-1.02-.34-1.23s.06-.35.06-.53-.3-.52-.28-.67Z"/></svg>